<mxfile host="Electron" agent="Mozilla/5.0 (Macintosh; Intel Mac OS X 10_15_7) AppleWebKit/537.36 (KHTML, like Gecko) draw.io/26.0.16 Chrome/132.0.6834.196 Electron/34.2.0 Safari/537.36" version="26.0.16">
  <diagram name="Page-1" id="Yy2mdiu7jGahDaxNJbHS">
    <mxGraphModel dx="928" dy="833" grid="1" gridSize="10" guides="1" tooltips="1" connect="1" arrows="1" fold="1" page="1" pageScale="1" pageWidth="827" pageHeight="1169" math="0" shadow="0">
      <root>
        <mxCell id="0" />
        <mxCell id="1" parent="0" />
        <mxCell id="1mqtS_ztihlNiNLkTW_Q-1" style="edgeStyle=orthogonalEdgeStyle;rounded=0;orthogonalLoop=1;jettySize=auto;html=1;exitX=0;exitY=0.5;exitDx=0;exitDy=0;entryX=0;entryY=0.5;entryDx=0;entryDy=0;endArrow=none;endFill=0;fontSize=13;" edge="1" parent="1" source="1mqtS_ztihlNiNLkTW_Q-4" target="1mqtS_ztihlNiNLkTW_Q-9">
          <mxGeometry relative="1" as="geometry" />
        </mxCell>
        <mxCell id="1mqtS_ztihlNiNLkTW_Q-2" style="edgeStyle=orthogonalEdgeStyle;rounded=0;orthogonalLoop=1;jettySize=auto;html=1;exitX=0;exitY=0.5;exitDx=0;exitDy=0;entryX=0;entryY=0.5;entryDx=0;entryDy=0;endArrow=none;endFill=0;fontSize=13;" edge="1" parent="1" source="1mqtS_ztihlNiNLkTW_Q-4" target="1mqtS_ztihlNiNLkTW_Q-10">
          <mxGeometry relative="1" as="geometry" />
        </mxCell>
        <mxCell id="1mqtS_ztihlNiNLkTW_Q-3" style="edgeStyle=orthogonalEdgeStyle;rounded=0;orthogonalLoop=1;jettySize=auto;html=1;exitX=0;exitY=0.5;exitDx=0;exitDy=0;entryX=0;entryY=0.5;entryDx=0;entryDy=0;endArrow=none;endFill=0;fontSize=13;" edge="1" parent="1" source="1mqtS_ztihlNiNLkTW_Q-4" target="1mqtS_ztihlNiNLkTW_Q-11">
          <mxGeometry relative="1" as="geometry" />
        </mxCell>
        <mxCell id="1mqtS_ztihlNiNLkTW_Q-53" style="edgeStyle=orthogonalEdgeStyle;rounded=0;orthogonalLoop=1;jettySize=auto;html=1;exitX=0.5;exitY=0;exitDx=0;exitDy=0;entryX=0.5;entryY=1;entryDx=0;entryDy=0;endArrow=none;startFill=0;" edge="1" parent="1" source="1mqtS_ztihlNiNLkTW_Q-4" target="1mqtS_ztihlNiNLkTW_Q-50">
          <mxGeometry relative="1" as="geometry" />
        </mxCell>
        <mxCell id="1mqtS_ztihlNiNLkTW_Q-4" value="Real-Time&lt;div&gt;Monitoring&lt;/div&gt;" style="rounded=1;whiteSpace=wrap;html=1;fontFamily=STIX;fontSize=13;" vertex="1" parent="1">
          <mxGeometry x="140" y="120" width="120" height="40" as="geometry" />
        </mxCell>
        <mxCell id="1mqtS_ztihlNiNLkTW_Q-5" style="edgeStyle=orthogonalEdgeStyle;rounded=0;orthogonalLoop=1;jettySize=auto;html=1;exitX=0;exitY=0.5;exitDx=0;exitDy=0;entryX=0;entryY=0.5;entryDx=0;entryDy=0;endArrow=none;endFill=0;fontSize=13;" edge="1" parent="1" source="1mqtS_ztihlNiNLkTW_Q-8" target="1mqtS_ztihlNiNLkTW_Q-12">
          <mxGeometry relative="1" as="geometry" />
        </mxCell>
        <mxCell id="1mqtS_ztihlNiNLkTW_Q-6" style="edgeStyle=orthogonalEdgeStyle;rounded=0;orthogonalLoop=1;jettySize=auto;html=1;exitX=0;exitY=0.5;exitDx=0;exitDy=0;entryX=0;entryY=0.5;entryDx=0;entryDy=0;endArrow=none;endFill=0;fontSize=13;" edge="1" parent="1" source="1mqtS_ztihlNiNLkTW_Q-8" target="1mqtS_ztihlNiNLkTW_Q-13">
          <mxGeometry relative="1" as="geometry" />
        </mxCell>
        <mxCell id="1mqtS_ztihlNiNLkTW_Q-7" style="edgeStyle=orthogonalEdgeStyle;rounded=0;orthogonalLoop=1;jettySize=auto;html=1;exitX=0;exitY=0.5;exitDx=0;exitDy=0;entryX=0;entryY=0.5;entryDx=0;entryDy=0;endArrow=none;endFill=0;fontSize=13;" edge="1" parent="1" source="1mqtS_ztihlNiNLkTW_Q-8" target="1mqtS_ztihlNiNLkTW_Q-14">
          <mxGeometry relative="1" as="geometry" />
        </mxCell>
        <mxCell id="1mqtS_ztihlNiNLkTW_Q-51" style="edgeStyle=orthogonalEdgeStyle;rounded=0;orthogonalLoop=1;jettySize=auto;html=1;exitX=0.5;exitY=0;exitDx=0;exitDy=0;entryX=0.5;entryY=1;entryDx=0;entryDy=0;endArrow=none;startFill=0;" edge="1" parent="1" source="1mqtS_ztihlNiNLkTW_Q-8" target="1mqtS_ztihlNiNLkTW_Q-50">
          <mxGeometry relative="1" as="geometry" />
        </mxCell>
        <mxCell id="1mqtS_ztihlNiNLkTW_Q-8" value="Past Earthquakes" style="rounded=1;whiteSpace=wrap;html=1;fontFamily=STIX;fontSize=13;" vertex="1" parent="1">
          <mxGeometry x="360" y="120" width="120" height="40" as="geometry" />
        </mxCell>
        <mxCell id="1mqtS_ztihlNiNLkTW_Q-9" value="EEWs" style="rounded=1;whiteSpace=wrap;html=1;fontFamily=STIX;fontSize=13;" vertex="1" parent="1">
          <mxGeometry x="160" y="600" width="120" height="40" as="geometry" />
        </mxCell>
        <mxCell id="1mqtS_ztihlNiNLkTW_Q-10" value="Tsunami Warnings" style="rounded=1;whiteSpace=wrap;html=1;fontFamily=STIX;fontSize=13;" vertex="1" parent="1">
          <mxGeometry x="160" y="420" width="120" height="40" as="geometry" />
        </mxCell>
        <mxCell id="1mqtS_ztihlNiNLkTW_Q-11" value="Real Time&lt;div style=&quot;font-size: 13px;&quot;&gt;Observation Points&lt;/div&gt;" style="rounded=1;whiteSpace=wrap;html=1;fontFamily=STIX;fontSize=13;" vertex="1" parent="1">
          <mxGeometry x="160" y="180" width="120" height="40" as="geometry" />
        </mxCell>
        <mxCell id="1mqtS_ztihlNiNLkTW_Q-12" value="Sidebar List" style="rounded=1;whiteSpace=wrap;html=1;fontFamily=STIX;fontSize=13;" vertex="1" parent="1">
          <mxGeometry x="380" y="180" width="120" height="40" as="geometry" />
        </mxCell>
        <mxCell id="1mqtS_ztihlNiNLkTW_Q-13" value="Detail Information Display" style="rounded=1;whiteSpace=wrap;html=1;fontFamily=STIX;fontSize=13;" vertex="1" parent="1">
          <mxGeometry x="380" y="360" width="120" height="40" as="geometry" />
        </mxCell>
        <mxCell id="1mqtS_ztihlNiNLkTW_Q-14" value="Website Button" style="rounded=1;whiteSpace=wrap;html=1;fontFamily=STIX;fontSize=13;" vertex="1" parent="1">
          <mxGeometry x="380" y="660" width="120" height="40" as="geometry" />
        </mxCell>
        <mxCell id="1mqtS_ztihlNiNLkTW_Q-15" style="edgeStyle=orthogonalEdgeStyle;rounded=0;orthogonalLoop=1;jettySize=auto;html=1;exitX=0;exitY=0.5;exitDx=0;exitDy=0;entryX=0;entryY=0.5;entryDx=0;entryDy=0;endArrow=none;endFill=0;fontSize=13;" edge="1" parent="1" source="1mqtS_ztihlNiNLkTW_Q-19" target="1mqtS_ztihlNiNLkTW_Q-20">
          <mxGeometry relative="1" as="geometry" />
        </mxCell>
        <mxCell id="1mqtS_ztihlNiNLkTW_Q-16" style="edgeStyle=orthogonalEdgeStyle;rounded=0;orthogonalLoop=1;jettySize=auto;html=1;exitX=0;exitY=0.5;exitDx=0;exitDy=0;entryX=0;entryY=0.5;entryDx=0;entryDy=0;endArrow=none;endFill=0;fontSize=13;" edge="1" parent="1" source="1mqtS_ztihlNiNLkTW_Q-19" target="1mqtS_ztihlNiNLkTW_Q-21">
          <mxGeometry relative="1" as="geometry" />
        </mxCell>
        <mxCell id="1mqtS_ztihlNiNLkTW_Q-18" style="edgeStyle=orthogonalEdgeStyle;rounded=0;orthogonalLoop=1;jettySize=auto;html=1;exitX=0;exitY=0.5;exitDx=0;exitDy=0;entryX=0;entryY=0.5;entryDx=0;entryDy=0;endArrow=none;endFill=0;fontSize=13;" edge="1" parent="1" source="1mqtS_ztihlNiNLkTW_Q-19" target="1mqtS_ztihlNiNLkTW_Q-23">
          <mxGeometry relative="1" as="geometry" />
        </mxCell>
        <mxCell id="1mqtS_ztihlNiNLkTW_Q-52" style="edgeStyle=orthogonalEdgeStyle;rounded=0;orthogonalLoop=1;jettySize=auto;html=1;exitX=0.5;exitY=0;exitDx=0;exitDy=0;entryX=0.5;entryY=1;entryDx=0;entryDy=0;endArrow=none;startFill=0;" edge="1" parent="1" source="1mqtS_ztihlNiNLkTW_Q-19" target="1mqtS_ztihlNiNLkTW_Q-50">
          <mxGeometry relative="1" as="geometry" />
        </mxCell>
        <mxCell id="1mqtS_ztihlNiNLkTW_Q-19" value="Configuration" style="rounded=1;whiteSpace=wrap;html=1;fontFamily=STIX;fontSize=13;" vertex="1" parent="1">
          <mxGeometry x="580" y="120" width="120" height="40" as="geometry" />
        </mxCell>
        <mxCell id="1mqtS_ztihlNiNLkTW_Q-20" value="Colour Scheme" style="rounded=1;whiteSpace=wrap;html=1;fontFamily=STIX;fontSize=13;dashed=1;" vertex="1" parent="1">
          <mxGeometry x="600" y="660" width="120" height="40" as="geometry" />
        </mxCell>
        <mxCell id="1mqtS_ztihlNiNLkTW_Q-21" value="Sound Settings" style="rounded=1;whiteSpace=wrap;html=1;fontFamily=STIX;fontSize=13;dashed=1;" vertex="1" parent="1">
          <mxGeometry x="600" y="600" width="120" height="40" as="geometry" />
        </mxCell>
        <mxCell id="1mqtS_ztihlNiNLkTW_Q-23" value="Authorisation" style="rounded=1;whiteSpace=wrap;html=1;fontFamily=STIX;fontSize=13;" vertex="1" parent="1">
          <mxGeometry x="600" y="180" width="120" height="40" as="geometry" />
        </mxCell>
        <mxCell id="1mqtS_ztihlNiNLkTW_Q-24" value="Position" style="rounded=1;whiteSpace=wrap;html=1;fontFamily=STIX;fontSize=13;" vertex="1" parent="1">
          <mxGeometry x="200" y="240" width="120" height="40" as="geometry" />
        </mxCell>
        <mxCell id="1mqtS_ztihlNiNLkTW_Q-25" style="edgeStyle=orthogonalEdgeStyle;rounded=0;orthogonalLoop=1;jettySize=auto;html=1;exitX=0;exitY=0.5;exitDx=0;exitDy=0;endArrow=none;endFill=0;fontSize=13;" edge="1" parent="1" source="1mqtS_ztihlNiNLkTW_Q-26">
          <mxGeometry relative="1" as="geometry">
            <mxPoint x="180" y="220" as="targetPoint" />
          </mxGeometry>
        </mxCell>
        <mxCell id="1mqtS_ztihlNiNLkTW_Q-26" value="Colouring" style="rounded=1;whiteSpace=wrap;html=1;fontFamily=STIX;fontSize=13;" vertex="1" parent="1">
          <mxGeometry x="200" y="300" width="120" height="40" as="geometry" />
        </mxCell>
        <mxCell id="1mqtS_ztihlNiNLkTW_Q-27" style="edgeStyle=orthogonalEdgeStyle;rounded=0;orthogonalLoop=1;jettySize=auto;html=1;exitX=0;exitY=0.5;exitDx=0;exitDy=0;entryX=0.167;entryY=1;entryDx=0;entryDy=0;entryPerimeter=0;endArrow=none;endFill=0;fontSize=13;" edge="1" parent="1" source="1mqtS_ztihlNiNLkTW_Q-24" target="1mqtS_ztihlNiNLkTW_Q-11">
          <mxGeometry relative="1" as="geometry" />
        </mxCell>
        <mxCell id="1mqtS_ztihlNiNLkTW_Q-28" value="P/S Wavefronts" style="rounded=1;whiteSpace=wrap;html=1;fontFamily=STIX;fontSize=13;" vertex="1" parent="1">
          <mxGeometry x="200" y="660" width="120" height="40" as="geometry" />
        </mxCell>
        <mxCell id="1mqtS_ztihlNiNLkTW_Q-29" value="Predicted Intensity Colouring" style="rounded=1;whiteSpace=wrap;html=1;fontFamily=STIX;fontSize=13;" vertex="1" parent="1">
          <mxGeometry x="200" y="720" width="120" height="40" as="geometry" />
        </mxCell>
        <mxCell id="1mqtS_ztihlNiNLkTW_Q-30" style="edgeStyle=orthogonalEdgeStyle;rounded=0;orthogonalLoop=1;jettySize=auto;html=1;exitX=0;exitY=0.5;exitDx=0;exitDy=0;entryX=0.167;entryY=1;entryDx=0;entryDy=0;entryPerimeter=0;endArrow=none;endFill=0;fontSize=13;" edge="1" parent="1" source="1mqtS_ztihlNiNLkTW_Q-28" target="1mqtS_ztihlNiNLkTW_Q-9">
          <mxGeometry relative="1" as="geometry" />
        </mxCell>
        <mxCell id="1mqtS_ztihlNiNLkTW_Q-31" style="edgeStyle=orthogonalEdgeStyle;rounded=0;orthogonalLoop=1;jettySize=auto;html=1;exitX=0;exitY=0.5;exitDx=0;exitDy=0;entryX=0.165;entryY=0.993;entryDx=0;entryDy=0;entryPerimeter=0;endArrow=none;endFill=0;fontSize=13;" edge="1" parent="1" source="1mqtS_ztihlNiNLkTW_Q-29" target="1mqtS_ztihlNiNLkTW_Q-9">
          <mxGeometry relative="1" as="geometry" />
        </mxCell>
        <mxCell id="1mqtS_ztihlNiNLkTW_Q-32" value="API Key" style="rounded=1;whiteSpace=wrap;html=1;fontFamily=STIX;fontSize=13;" vertex="1" parent="1">
          <mxGeometry x="640" y="240" width="120" height="40" as="geometry" />
        </mxCell>
        <mxCell id="1mqtS_ztihlNiNLkTW_Q-33" style="edgeStyle=orthogonalEdgeStyle;rounded=0;orthogonalLoop=1;jettySize=auto;html=1;exitX=0;exitY=0.5;exitDx=0;exitDy=0;endArrow=none;endFill=0;fontSize=13;" edge="1" parent="1" source="1mqtS_ztihlNiNLkTW_Q-34">
          <mxGeometry relative="1" as="geometry">
            <mxPoint x="620" y="220" as="targetPoint" />
          </mxGeometry>
        </mxCell>
        <mxCell id="1mqtS_ztihlNiNLkTW_Q-34" value="OAuth 2.0" style="rounded=1;whiteSpace=wrap;html=1;fontFamily=STIX;fontSize=13;" vertex="1" parent="1">
          <mxGeometry x="640" y="300" width="120" height="40" as="geometry" />
        </mxCell>
        <mxCell id="1mqtS_ztihlNiNLkTW_Q-35" style="edgeStyle=orthogonalEdgeStyle;rounded=0;orthogonalLoop=1;jettySize=auto;html=1;exitX=0;exitY=0.5;exitDx=0;exitDy=0;entryX=0.167;entryY=1;entryDx=0;entryDy=0;entryPerimeter=0;endArrow=none;endFill=0;fontSize=13;" edge="1" parent="1" source="1mqtS_ztihlNiNLkTW_Q-32" target="1mqtS_ztihlNiNLkTW_Q-23">
          <mxGeometry relative="1" as="geometry" />
        </mxCell>
        <mxCell id="1mqtS_ztihlNiNLkTW_Q-36" style="edgeStyle=orthogonalEdgeStyle;rounded=0;orthogonalLoop=1;jettySize=auto;html=1;exitX=0;exitY=0.5;exitDx=0;exitDy=0;endArrow=none;endFill=0;fontSize=13;" edge="1" parent="1" source="1mqtS_ztihlNiNLkTW_Q-37">
          <mxGeometry relative="1" as="geometry">
            <mxPoint x="400" y="400" as="targetPoint" />
          </mxGeometry>
        </mxCell>
        <mxCell id="1mqtS_ztihlNiNLkTW_Q-37" value="Intensity Tree" style="rounded=1;whiteSpace=wrap;html=1;fontFamily=STIX;fontSize=13;" vertex="1" parent="1">
          <mxGeometry x="420" y="600" width="120" height="40" as="geometry" />
        </mxCell>
        <mxCell id="1mqtS_ztihlNiNLkTW_Q-38" value="Intensity Colouring" style="rounded=1;whiteSpace=wrap;html=1;fontFamily=STIX;fontSize=13;" vertex="1" parent="1">
          <mxGeometry x="420" y="420" width="120" height="40" as="geometry" />
        </mxCell>
        <mxCell id="1mqtS_ztihlNiNLkTW_Q-39" style="edgeStyle=orthogonalEdgeStyle;rounded=0;orthogonalLoop=1;jettySize=auto;html=1;exitX=0;exitY=0.5;exitDx=0;exitDy=0;entryX=0.167;entryY=1;entryDx=0;entryDy=0;entryPerimeter=0;endArrow=none;endFill=0;fontSize=13;" edge="1" parent="1" source="1mqtS_ztihlNiNLkTW_Q-38" target="1mqtS_ztihlNiNLkTW_Q-13">
          <mxGeometry relative="1" as="geometry" />
        </mxCell>
        <mxCell id="1mqtS_ztihlNiNLkTW_Q-40" style="edgeStyle=orthogonalEdgeStyle;rounded=0;orthogonalLoop=1;jettySize=auto;html=1;exitX=0;exitY=0.5;exitDx=0;exitDy=0;endArrow=none;endFill=0;fontSize=13;" edge="1" parent="1" source="1mqtS_ztihlNiNLkTW_Q-41">
          <mxGeometry relative="1" as="geometry">
            <mxPoint x="400" y="220" as="targetPoint" />
          </mxGeometry>
        </mxCell>
        <mxCell id="1mqtS_ztihlNiNLkTW_Q-41" value="Maximum Intensity" style="rounded=1;whiteSpace=wrap;html=1;fontFamily=STIX;fontSize=13;" vertex="1" parent="1">
          <mxGeometry x="420" y="300" width="120" height="40" as="geometry" />
        </mxCell>
        <mxCell id="1mqtS_ztihlNiNLkTW_Q-42" value="Hypocentre Details" style="rounded=1;whiteSpace=wrap;html=1;fontFamily=STIX;fontSize=13;" vertex="1" parent="1">
          <mxGeometry x="420" y="240" width="120" height="40" as="geometry" />
        </mxCell>
        <mxCell id="1mqtS_ztihlNiNLkTW_Q-43" style="edgeStyle=orthogonalEdgeStyle;rounded=0;orthogonalLoop=1;jettySize=auto;html=1;exitX=0;exitY=0.5;exitDx=0;exitDy=0;entryX=0.167;entryY=1;entryDx=0;entryDy=0;entryPerimeter=0;endArrow=none;endFill=0;fontSize=13;" edge="1" parent="1" source="1mqtS_ztihlNiNLkTW_Q-42" target="1mqtS_ztihlNiNLkTW_Q-12">
          <mxGeometry relative="1" as="geometry" />
        </mxCell>
        <mxCell id="1mqtS_ztihlNiNLkTW_Q-44" style="edgeStyle=orthogonalEdgeStyle;rounded=0;orthogonalLoop=1;jettySize=auto;html=1;exitX=0;exitY=0.5;exitDx=0;exitDy=0;endArrow=none;endFill=0;fontSize=13;entryX=0.113;entryY=1.019;entryDx=0;entryDy=0;entryPerimeter=0;" edge="1" parent="1" source="1mqtS_ztihlNiNLkTW_Q-45" target="1mqtS_ztihlNiNLkTW_Q-14">
          <mxGeometry relative="1" as="geometry">
            <mxPoint x="400" y="680" as="targetPoint" />
          </mxGeometry>
        </mxCell>
        <mxCell id="1mqtS_ztihlNiNLkTW_Q-45" value="External Weather Provider" style="rounded=1;whiteSpace=wrap;html=1;fontFamily=STIX;fontSize=13;" vertex="1" parent="1">
          <mxGeometry x="413" y="720" width="120" height="40" as="geometry" />
        </mxCell>
        <mxCell id="1mqtS_ztihlNiNLkTW_Q-48" value="Shake Detection" style="rounded=1;whiteSpace=wrap;html=1;fontFamily=STIX;fontSize=13;dashed=1;" vertex="1" parent="1">
          <mxGeometry x="200" y="360" width="120" height="40" as="geometry" />
        </mxCell>
        <mxCell id="1mqtS_ztihlNiNLkTW_Q-49" style="edgeStyle=orthogonalEdgeStyle;rounded=0;orthogonalLoop=1;jettySize=auto;html=1;exitX=0;exitY=0.5;exitDx=0;exitDy=0;entryX=0.169;entryY=1.088;entryDx=0;entryDy=0;entryPerimeter=0;endArrow=none;endFill=0;fontSize=13;" edge="1" parent="1" source="1mqtS_ztihlNiNLkTW_Q-48" target="1mqtS_ztihlNiNLkTW_Q-11">
          <mxGeometry relative="1" as="geometry" />
        </mxCell>
        <mxCell id="1mqtS_ztihlNiNLkTW_Q-50" value="GUI" style="rounded=1;whiteSpace=wrap;html=1;fontFamily=STIX;fontSize=13;" vertex="1" parent="1">
          <mxGeometry x="360" y="40" width="120" height="40" as="geometry" />
        </mxCell>
        <mxCell id="1mqtS_ztihlNiNLkTW_Q-54" value="Shoreline Colouring" style="rounded=1;whiteSpace=wrap;html=1;fontFamily=STIX;fontSize=13;" vertex="1" parent="1">
          <mxGeometry x="200" y="480" width="120" height="40" as="geometry" />
        </mxCell>
        <mxCell id="1mqtS_ztihlNiNLkTW_Q-57" style="edgeStyle=orthogonalEdgeStyle;rounded=0;orthogonalLoop=1;jettySize=auto;html=1;exitX=0;exitY=0.5;exitDx=0;exitDy=0;endArrow=none;startFill=0;" edge="1" parent="1" source="1mqtS_ztihlNiNLkTW_Q-55">
          <mxGeometry relative="1" as="geometry">
            <mxPoint x="180" y="460" as="targetPoint" />
          </mxGeometry>
        </mxCell>
        <mxCell id="1mqtS_ztihlNiNLkTW_Q-55" value="Information Panel Display" style="rounded=1;whiteSpace=wrap;html=1;fontFamily=STIX;fontSize=13;" vertex="1" parent="1">
          <mxGeometry x="200" y="540" width="120" height="40" as="geometry" />
        </mxCell>
        <mxCell id="1mqtS_ztihlNiNLkTW_Q-56" style="edgeStyle=orthogonalEdgeStyle;rounded=0;orthogonalLoop=1;jettySize=auto;html=1;exitX=0;exitY=0.5;exitDx=0;exitDy=0;entryX=0.166;entryY=1.012;entryDx=0;entryDy=0;entryPerimeter=0;endArrow=none;startFill=0;" edge="1" parent="1" source="1mqtS_ztihlNiNLkTW_Q-54" target="1mqtS_ztihlNiNLkTW_Q-10">
          <mxGeometry relative="1" as="geometry" />
        </mxCell>
        <mxCell id="1mqtS_ztihlNiNLkTW_Q-58" value="Hypocentre Mark" style="rounded=1;whiteSpace=wrap;html=1;fontFamily=STIX;fontSize=13;" vertex="1" parent="1">
          <mxGeometry x="200" y="780" width="120" height="40" as="geometry" />
        </mxCell>
        <mxCell id="1mqtS_ztihlNiNLkTW_Q-59" value="Information Panel Display" style="rounded=1;whiteSpace=wrap;html=1;fontFamily=STIX;fontSize=13;" vertex="1" parent="1">
          <mxGeometry x="200" y="840" width="120" height="40" as="geometry" />
        </mxCell>
        <mxCell id="1mqtS_ztihlNiNLkTW_Q-60" style="edgeStyle=orthogonalEdgeStyle;rounded=0;orthogonalLoop=1;jettySize=auto;html=1;exitX=0;exitY=0.5;exitDx=0;exitDy=0;entryX=0.165;entryY=0.993;entryDx=0;entryDy=0;entryPerimeter=0;endArrow=none;endFill=0;fontSize=13;" edge="1" parent="1" source="1mqtS_ztihlNiNLkTW_Q-58">
          <mxGeometry relative="1" as="geometry">
            <mxPoint x="200" y="740" as="sourcePoint" />
            <mxPoint x="180" y="640" as="targetPoint" />
          </mxGeometry>
        </mxCell>
        <mxCell id="1mqtS_ztihlNiNLkTW_Q-61" style="edgeStyle=orthogonalEdgeStyle;rounded=0;orthogonalLoop=1;jettySize=auto;html=1;exitX=0;exitY=0.5;exitDx=0;exitDy=0;endArrow=none;endFill=0;fontSize=13;" edge="1" parent="1" source="1mqtS_ztihlNiNLkTW_Q-59">
          <mxGeometry relative="1" as="geometry">
            <mxPoint x="200" y="810" as="sourcePoint" />
            <mxPoint x="180" y="640" as="targetPoint" />
          </mxGeometry>
        </mxCell>
        <mxCell id="1mqtS_ztihlNiNLkTW_Q-67" style="edgeStyle=orthogonalEdgeStyle;rounded=0;orthogonalLoop=1;jettySize=auto;html=1;exitX=0;exitY=0.5;exitDx=0;exitDy=0;entryX=0;entryY=0.5;entryDx=0;entryDy=0;endArrow=none;startFill=0;" edge="1" parent="1" source="1mqtS_ztihlNiNLkTW_Q-62" target="1mqtS_ztihlNiNLkTW_Q-19">
          <mxGeometry relative="1" as="geometry" />
        </mxCell>
        <mxCell id="1mqtS_ztihlNiNLkTW_Q-62" value="WebSocket" style="rounded=1;whiteSpace=wrap;html=1;fontFamily=STIX;fontSize=13;" vertex="1" parent="1">
          <mxGeometry x="600" y="360" width="120" height="40" as="geometry" />
        </mxCell>
        <mxCell id="1mqtS_ztihlNiNLkTW_Q-63" value="Connect/Disconnect" style="rounded=1;whiteSpace=wrap;html=1;fontFamily=STIX;fontSize=13;" vertex="1" parent="1">
          <mxGeometry x="640" y="420" width="120" height="40" as="geometry" />
        </mxCell>
        <mxCell id="1mqtS_ztihlNiNLkTW_Q-64" style="edgeStyle=orthogonalEdgeStyle;rounded=0;orthogonalLoop=1;jettySize=auto;html=1;exitX=0;exitY=0.5;exitDx=0;exitDy=0;endArrow=none;endFill=0;fontSize=13;" edge="1" parent="1" source="1mqtS_ztihlNiNLkTW_Q-65">
          <mxGeometry relative="1" as="geometry">
            <mxPoint x="620" y="400" as="targetPoint" />
          </mxGeometry>
        </mxCell>
        <mxCell id="1mqtS_ztihlNiNLkTW_Q-65" value="List" style="rounded=1;whiteSpace=wrap;html=1;fontFamily=STIX;fontSize=13;" vertex="1" parent="1">
          <mxGeometry x="640" y="480" width="120" height="40" as="geometry" />
        </mxCell>
        <mxCell id="1mqtS_ztihlNiNLkTW_Q-66" style="edgeStyle=orthogonalEdgeStyle;rounded=0;orthogonalLoop=1;jettySize=auto;html=1;exitX=0;exitY=0.5;exitDx=0;exitDy=0;entryX=0.167;entryY=1;entryDx=0;entryDy=0;entryPerimeter=0;endArrow=none;endFill=0;fontSize=13;" edge="1" parent="1" source="1mqtS_ztihlNiNLkTW_Q-63" target="1mqtS_ztihlNiNLkTW_Q-62">
          <mxGeometry relative="1" as="geometry" />
        </mxCell>
        <mxCell id="1mqtS_ztihlNiNLkTW_Q-69" style="edgeStyle=orthogonalEdgeStyle;rounded=0;orthogonalLoop=1;jettySize=auto;html=1;exitX=0;exitY=0.5;exitDx=0;exitDy=0;entryX=0;entryY=0.5;entryDx=0;entryDy=0;endArrow=none;startFill=0;" edge="1" parent="1" source="1mqtS_ztihlNiNLkTW_Q-68" target="1mqtS_ztihlNiNLkTW_Q-19">
          <mxGeometry relative="1" as="geometry" />
        </mxCell>
        <mxCell id="1mqtS_ztihlNiNLkTW_Q-68" value="Real-Time Monitor Customisation" style="rounded=1;whiteSpace=wrap;html=1;fontFamily=STIX;fontSize=13;" vertex="1" parent="1">
          <mxGeometry x="600" y="540" width="120" height="40" as="geometry" />
        </mxCell>
        <mxCell id="1mqtS_ztihlNiNLkTW_Q-72" style="edgeStyle=orthogonalEdgeStyle;rounded=0;orthogonalLoop=1;jettySize=auto;html=1;exitX=0;exitY=0.5;exitDx=0;exitDy=0;endArrow=none;startFill=0;" edge="1" parent="1" source="1mqtS_ztihlNiNLkTW_Q-70">
          <mxGeometry relative="1" as="geometry">
            <mxPoint x="400" y="400" as="targetPoint" />
          </mxGeometry>
        </mxCell>
        <mxCell id="1mqtS_ztihlNiNLkTW_Q-70" value="Hypocentre Marking" style="rounded=1;whiteSpace=wrap;html=1;fontFamily=STIX;fontSize=13;" vertex="1" parent="1">
          <mxGeometry x="420" y="480" width="120" height="40" as="geometry" />
        </mxCell>
        <mxCell id="1mqtS_ztihlNiNLkTW_Q-73" style="edgeStyle=orthogonalEdgeStyle;rounded=0;orthogonalLoop=1;jettySize=auto;html=1;exitX=0;exitY=0.5;exitDx=0;exitDy=0;endArrow=none;startFill=0;" edge="1" parent="1" source="1mqtS_ztihlNiNLkTW_Q-71">
          <mxGeometry relative="1" as="geometry">
            <mxPoint x="400" y="400" as="targetPoint" />
          </mxGeometry>
        </mxCell>
        <mxCell id="1mqtS_ztihlNiNLkTW_Q-71" value="Observation Station Colouring" style="rounded=1;whiteSpace=wrap;html=1;fontFamily=STIX;fontSize=13;" vertex="1" parent="1">
          <mxGeometry x="420" y="540" width="120" height="40" as="geometry" />
        </mxCell>
      </root>
    </mxGraphModel>
  </diagram>
</mxfile>
